<svg xmlns="http://www.w3.org/2000/svg" viewBox="0 0 57.28 87.59"><defs><style>.cls-1{fill:#229395;}.cls-2{fill:#df113f;}.cls-3{fill:#fff;}.cls-4{fill:#791622;}.cls-5{fill:#ddded1;}.cls-6{fill:#3c332e;}.cls-7{fill:#705e58;}.cls-8{fill:#4bbcc2;}</style></defs><g id="Capa_2" data-name="Capa 2"><g id="Capa_7" data-name="Capa 7"><path class="cls-1" d="M0,11.85V74.57a5.74,5.74,0,0,0,5.74,5.74V11.85Z"/><polygon class="cls-2" points="5.74 17.59 5.74 80.31 57.28 80.31 57.28 75.05 57.28 69.79 57.28 17.59 5.74 17.59 5.74 17.59"/><path class="cls-3" d="M1.86,11.85a3.88,3.88,0,0,0,3.88,3.87H57.28V8H5.74a3.88,3.88,0,0,0-3.88,3.88Z"/><path class="cls-4" d="M5.74,15.72A3.88,3.88,0,1,1,5.74,8H57.28V6.11H5.74a5.74,5.74,0,0,0,0,11.48H57.28V15.72H5.74Z"/><path class="cls-4" d="M3.21,11.85a2.53,2.53,0,0,0,2.53,2.53V9.32a2.53,2.53,0,0,0-2.53,2.53Z"/><polygon class="cls-5" points="48.82 26.55 31.51 26.55 31.51 36.17 48.82 36.17 48.82 26.55 48.82 26.55"/><polygon class="cls-3" points="14.2 26.55 14.2 36.17 31.51 36.17 31.51 26.55 14.2 26.55 14.2 26.55"/><polygon class="cls-6" points="43.81 72.03 43.81 68.15 31.51 68.15 31.51 72.03 43.81 72.03 43.81 72.03"/><polygon class="cls-7" points="19.21 72.03 31.51 72.03 31.51 68.15 19.21 68.15 19.21 72.03 19.21 72.03"/><path class="cls-8" d="M22.85,48.23a8.66,8.66,0,0,0,8.66,8.66V39.57a8.66,8.66,0,0,0-8.66,8.66Z"/><path class="cls-1" d="M31.51,56.89a8.66,8.66,0,0,0,0-17.32h0V56.89Z"/><polygon class="cls-8" points="22.59 80.31 22.59 87.59 26.08 84.1 29.57 87.59 29.57 80.31 22.59 80.31 22.59 80.31"/><path class="cls-8" d="M26.08,0a3.49,3.49,0,0,0-3.49,3.49v8.36h7V3.49A3.49,3.49,0,0,0,26.08,0Z"/></g></g></svg>